{
    "asset" : {
        "generator" : "Khronos glTF Blender I/O v1.8.19",
        "version" : "2.0"
    },
    "extensionsUsed" : [
        "KHR_materials_unlit"
    ],
    "sceneInstance" : 0,
    "scenes" : [
        {
            "name" : "shrek_forever_face.qc",
            "nodes" : [
                0,
                1,
                2
            ]
        }
    ],
    "nodes" : [
        {
            "mesh" : 0,
            "name" : "Shrek_mesh"
        },
        {
            "mesh" : 1,
            "name" : "Shrek_mesh.002"
        },
        {
            "mesh" : 2,
            "name" : "Shrek_mesh.003"
        }
    ],
    "materials" : [
        {
            "doubleSided" : true,
            "extensions" : {
                "KHR_materials_unlit" : {}
            },
            "name" : "Head",
            "pbrMetallicRoughness" : {
                "baseColorTexture" : {
                    "index" : 0
                },
                "metallicFactor" : 0,
                "roughnessFactor" : 0.9
            }
        },
        {
            "doubleSided" : true,
            "extensions" : {
                "KHR_materials_unlit" : {}
            },
            "name" : "Body",
            "pbrMetallicRoughness" : {
                "baseColorTexture" : {
                    "index" : 1
                },
                "metallicFactor" : 0,
                "roughnessFactor" : 0.9
            }
        },
        {
            "doubleSided" : true,
            "extensions" : {
                "KHR_materials_unlit" : {}
            },
            "name" : "Eyes",
            "pbrMetallicRoughness" : {
                "baseColorTexture" : {
                    "index" : 2
                },
                "metallicFactor" : 0,
                "roughnessFactor" : 0.9
            }
        }
    ],
    "meshes" : [
        {
            "name" : "Shrek",
            "primitives" : [
                {
                    "attributes" : {
                        "POSITION" : 0,
                        "NORMAL" : 1,
                        "TEXCOORD_0" : 2
                    },
                    "indices" : 3,
                    "material" : 0
                }
            ]
        },
        {
            "name" : "Shrek.002",
            "primitives" : [
                {
                    "attributes" : {
                        "POSITION" : 4,
                        "NORMAL" : 5,
                        "TEXCOORD_0" : 6
                    },
                    "indices" : 7,
                    "material" : 1
                }
            ]
        },
        {
            "name" : "Shrek.003",
            "primitives" : [
                {
                    "attributes" : {
                        "POSITION" : 8,
                        "NORMAL" : 9,
                        "TEXCOORD_0" : 10
                    },
                    "indices" : 11,
                    "material" : 2
                }
            ]
        }
    ],
    "textures" : [
        {
            "sampler" : 0,
            "source" : 0
        },
        {
            "sampler" : 0,
            "source" : 1
        },
        {
            "sampler" : 0,
            "source" : 2
        }
    ],
    "images" : [
        {
            "mimeType" : "image/png",
            "name" : "ShrekHead_Col",
            "uri" : "ShrekHead_Col.png"
        },
        {
            "mimeType" : "image/png",
            "name" : "ShrekBody_Col",
            "uri" : "ShrekBody_Col.png"
        },
        {
            "mimeType" : "image/jpeg",
            "name" : "shrekball",
            "uri" : "shrekball.jpg"
        }
    ],
    "accessors" : [
        {
            "bufferView" : 0,
            "componentType" : 5126,
            "count" : 1389,
            "max" : [
                3.6664786338806152,
                25.05804443359375,
                5.245201587677002
            ],
            "min" : [
                -3.6662416458129883,
                17.424421310424805,
                -2.3317317962646484
            ],
            "type" : "VEC3"
        },
        {
            "bufferView" : 1,
            "componentType" : 5126,
            "count" : 1389,
            "type" : "VEC3"
        },
        {
            "bufferView" : 2,
            "componentType" : 5126,
            "count" : 1389,
            "type" : "VEC2"
        },
        {
            "bufferView" : 3,
            "componentType" : 5123,
            "count" : 6822,
            "type" : "SCALAR"
        },
        {
            "bufferView" : 4,
            "componentType" : 5126,
            "count" : 4537,
            "max" : [
                16.60131072998047,
                23.80377197265625,
                4.769103527069092
            ],
            "min" : [
                -16.600677490234375,
                -0.07275523245334625,
                -5.259511470794678
            ],
            "type" : "VEC3"
        },
        {
            "bufferView" : 5,
            "componentType" : 5126,
            "count" : 4537,
            "type" : "VEC3"
        },
        {
            "bufferView" : 6,
            "componentType" : 5126,
            "count" : 4537,
            "type" : "VEC2"
        },
        {
            "bufferView" : 7,
            "componentType" : 5123,
            "count" : 19584,
            "type" : "SCALAR"
        },
        {
            "bufferView" : 8,
            "componentType" : 5126,
            "count" : 115,
            "max" : [
                1.494886875152588,
                23.40683937072754,
                3.922651767730713
            ],
            "min" : [
                -1.2919002771377563,
                22.315650939941406,
                3.1570513248443604
            ],
            "type" : "VEC3"
        },
        {
            "bufferView" : 9,
            "componentType" : 5126,
            "count" : 115,
            "type" : "VEC3"
        },
        {
            "bufferView" : 10,
            "componentType" : 5126,
            "count" : 115,
            "type" : "VEC2"
        },
        {
            "bufferView" : 11,
            "componentType" : 5123,
            "count" : 534,
            "type" : "SCALAR"
        }
    ],
    "bufferViews" : [
        {
            "buffer" : 0,
            "byteLength" : 16668,
            "byteOffset" : 0
        },
        {
            "buffer" : 0,
            "byteLength" : 16668,
            "byteOffset" : 16668
        },
        {
            "buffer" : 0,
            "byteLength" : 11112,
            "byteOffset" : 33336
        },
        {
            "buffer" : 0,
            "byteLength" : 13644,
            "byteOffset" : 44448
        },
        {
            "buffer" : 0,
            "byteLength" : 54444,
            "byteOffset" : 58092
        },
        {
            "buffer" : 0,
            "byteLength" : 54444,
            "byteOffset" : 112536
        },
        {
            "buffer" : 0,
            "byteLength" : 36296,
            "byteOffset" : 166980
        },
        {
            "buffer" : 0,
            "byteLength" : 39168,
            "byteOffset" : 203276
        },
        {
            "buffer" : 0,
            "byteLength" : 1380,
            "byteOffset" : 242444
        },
        {
            "buffer" : 0,
            "byteLength" : 1380,
            "byteOffset" : 243824
        },
        {
            "buffer" : 0,
            "byteLength" : 920,
            "byteOffset" : 245204
        },
        {
            "buffer" : 0,
            "byteLength" : 1068,
            "byteOffset" : 246124
        }
    ],
    "samplers" : [
        {
            "magFilter" : 9729,
            "minFilter" : 9987
        }
    ],
    "buffers" : [
        {
            "byteLength" : 247192,
            "uri" : "Shrek_mod.bin"
        }
    ]
}
